<svg width="64" height="64" viewBox="0 0 64 64" fill="none" xmlns="http://www.w3.org/2000/svg">
  <!-- Background Circle (Premium feel) -->
  <circle cx="32" cy="32" r="30" fill="#E0A9AF" />
  
  <!-- Minimalist Shopping Bag -->
  <path d="M22 24V20C22 14.4772 26.4772 10 32 10C37.5228 10 42 14.4772 42 20V24H48C49.1046 24 50 24.8954 50 26V50C50 51.1046 49.1046 52 48 52H16C14.8954 52 14 51.1046 14 50V26C14 24.8954 14.8954 24 16 24H22ZM26 24H38V20C38 16.6863 35.3137 14 32 14C28.6863 14 26 16.6863 26 20V24Z" fill="white"/>
  
  <!-- Sparkle (Matching the app's 'magic' theme) -->
  <path d="M48 14C48 14 48.5 17 51 17C48.5 17 48 20 48 20C48 20 47.5 17 45 17C47.5 17 48 14 48 14Z" fill="white" />
</svg>
